<svg xmlns="http://www.w3.org/2000/svg" width="39.457" height="32.826" viewBox="0 0 39.457 32.826">
  <defs>
    <style>
      .cls-1 {
        fill: #fff;
      }
    </style>
  </defs>
  <g id="next" transform="translate(0 -41.346)">
    <g id="Group_36" data-name="Group 36" transform="translate(0 41.346)">
      <path id="Path_311" data-name="Path 311" class="cls-1" d="M38.827,56.226,24.577,41.976a2.166,2.166,0,0,0-3.054,0L20.229,43.27A2.144,2.144,0,0,0,19.6,44.8a2.186,2.186,0,0,0,.63,1.545l8.313,8.331H2.132A2.107,2.107,0,0,0,0,56.8v1.829a2.188,2.188,0,0,0,2.132,2.217h26.5L20.23,69.221a2.139,2.139,0,0,0,0,3.032l1.294,1.29a2.166,2.166,0,0,0,3.054,0L38.827,59.291a2.178,2.178,0,0,0,0-3.065Z" transform="translate(0 -41.346)"/>
    </g>
  </g>
</svg>
